<svg width="20" height="20" viewBox="0 0 20 20" fill="none" xmlns="http://www.w3.org/2000/svg">
<path d="M12.5547 0.278182C13.9891 0.446932 15.0813 0.821932 16.1406 1.51568C17.8375 2.63131 18.9906 4.22037 19.4828 6.13287C19.6844 6.92506 19.7266 7.25787 19.7219 8.14849C19.7219 9.05318 19.6563 9.54068 19.4453 10.286C18.7328 12.7797 16.8156 14.786 14.3594 15.5969C13.4266 15.9063 13 15.9719 11.8985 15.9719C11.0547 15.9766 10.8391 15.9626 10.3844 15.8688C8.75314 15.5407 7.37502 14.7907 6.22189 13.6047C5.35002 12.7047 4.78283 11.7719 4.39845 10.586C4.08908 9.63912 4.02345 9.20318 4.02814 8.07818C4.02814 7.02349 4.09377 6.60631 4.38439 5.69224C5.41564 2.45787 8.5422 0.20787 11.9453 0.259432C12.2031 0.259432 12.475 0.273495 12.5547 0.278182ZM16.1125 5.76256C15.9203 5.85162 15.8266 5.97349 15.7656 6.21256C15.7281 6.34849 15.7375 6.45162 15.8313 6.75162C16.0235 7.36099 16.061 7.65631 16.0375 8.32662C16.0141 8.85162 15.9906 9.01099 15.8641 9.39068C15.6813 9.95318 15.3766 10.4876 14.9922 10.9329C14.6594 11.3126 14.5938 11.4907 14.6828 11.7813C14.7813 12.1047 15.1141 12.2969 15.4703 12.2266C15.8594 12.1563 16.6328 11.1391 17.0078 10.2063C17.3078 9.46568 17.3828 9.04381 17.3781 8.10162C17.3781 7.33756 17.3641 7.21099 17.2516 6.78912C17.1813 6.53599 17.0781 6.22662 17.0219 6.10943C16.8297 5.72974 16.4688 5.59381 16.1125 5.76256Z" fill="#505050"/>
<path d="M4.29531 12.9907C4.89531 13.9657 5.86563 14.936 6.93906 15.6485C7.12656 15.7703 7.28125 15.8875 7.28125 15.9063C7.28125 15.9203 6.51719 16.6938 5.57969 17.6266C4.00469 19.1969 3.85938 19.3282 3.52656 19.4875C3.0625 19.7172 2.65938 19.7828 2.19063 19.7172C1.02344 19.5485 0.175 18.4938 0.26875 17.3266C0.296875 16.9657 0.428125 16.5578 0.615625 16.2578C0.723438 16.0844 4.03281 12.7188 4.09844 12.7188C4.1125 12.7188 4.20156 12.8407 4.29531 12.9907Z" fill="#505050"/>
</svg>
