<svg width="20" height="20" viewBox="0 0 20 20" fill="none" xmlns="http://www.w3.org/2000/svg">
<g clip-path="url(#clip0_53_160)">
<path d="M5.21246 0.869892C4.54852 1.03139 4.00301 1.55178 3.76615 2.24802C3.70514 2.43823 3.70155 2.77199 3.69078 10.1974C3.6836 15.5591 3.69437 18.0247 3.71949 18.1969C3.78768 18.642 3.96354 18.9255 4.27577 19.0906C4.38343 19.148 4.48392 19.1659 4.67054 19.1659C5.16581 19.1659 5.04378 19.27 7.66007 16.6609L10 14.3246L12.3435 16.6609C14.9562 19.27 14.8342 19.1659 15.3295 19.1659C15.8499 19.1659 16.1836 18.825 16.2805 18.1969C16.3056 18.0247 16.3164 15.5591 16.3092 10.1974C16.2985 2.77199 16.2949 2.43823 16.2339 2.24802C15.997 1.54101 15.4515 1.0278 14.7696 0.866302C14.4358 0.787348 5.53905 0.790936 5.21246 0.869892Z" fill="white"/>
</g>
<defs>
<clipPath id="clip0_53_160">
<rect width="18.375" height="18.375" fill="white" transform="translate(0.8125 0.8125)"/>
</clipPath>
</defs>
</svg>
